#!OML:ASF E:\inclinewalkrobotboard\Project 1\Capture day 1\Session 1\subject1.ASF
:FULLY-SPECIFIED
:DEGREES
32
root 7.05377 16.6284 36.4437 -169.821 2.63705 179.288
lowerback -8.70673 1.15207 -6.87804
upperback 1.59141 2.1944 1.73258
thorax 6.25662 0.793173 6.01787
lowerneck -6.51651 0.523447 -3.83588
upperneck 31.6255 -4.26782 6.47993
head 11.5404 -2.89165 2.33252
rclavicle 2.98177e-016 -3.97569e-015
rhumerus -50.6661 -33.2457 -62.5016
rradius 25.8633
rwrist 17.2096
rhand -13.8884 -38.3496
rfingers 7.12502
rthumb 12.2367 -67.9716
lclavicle 2.98177e-016 -3.97569e-015
lhumerus -29.5556 11.006 85.5955
lradius 17.8841
lwrist -33.5045
lhand -24.2643 -21.5824
lfingers 7.12502
lthumb 2.22207 8.38578
rfemur -6.03178 2.27361 19.6748
rtibia 8.44665
rfoot -14.2225 -2.18553
rtoes -26.2988
lfemur -6.87922 -8.0559 -22.021
ltibia 10.0243
lfoot -15.48 4.58666
ltoes -66.0566
33
root 7.05206 16.6275 36.4469 -169.768 2.62296 179.296
lowerback -8.77239 1.14716 -6.8768
upperback 1.60232 2.19276 1.73089
thorax 6.30617 0.789859 6.01834
lowerneck -6.39219 0.50541 -3.78263
upperneck 31.4862 -4.27112 6.45552
head 11.4587 -2.8873 2.31416
rclavicle 1.04362e-014 -3.57812e-015
rhumerus -50.5611 -33.1316 -62.6906
rradius 25.9605
rwrist 16.9722
rhand -13.9751 -38.2611
rfingers 7.12502
rthumb 12.1532 -67.8881
lclavicle 1.04362e-014 -3.57812e-015
lhumerus -29.4642 10.7266 85.75
lradius 18.0985
lwrist -33.6107
lhand -24.5601 -21.4677
lfingers 7.12502
lthumb 1.93641 8.50327
rfemur -6.1155 2.23534 19.6727
rtibia 8.46361
rfoot -14.2739 -2.12435
rtoes -26.4164
lfemur -6.95008 -8.05706 -22.0063
ltibia 10.026
lfoot -15.5183 4.49869
ltoes -65.9128
34
root 7.05017 16.6272 36.4516 -169.763 2.63293 179.236
lowerback -8.74918 1.14108 -6.93014
upperback 1.60163 2.19008 1.70729
thorax 6.29184 0.787562 6.02207
lowerneck -6.40039 0.492981 -3.74134
upperneck 31.5615 -4.307 6.40243
head 11.491 -2.90991 2.28247
rclavicle -2.75317e-014 -1.78906e-014
rhumerus -50.4527 -32.9105 -62.9586
rradius 26.0735
rwrist 16.6273
rhand -14.0336 -38.0591
rfingers 7.12502
rthumb 12.0967 -67.6894
lclavicle -2.75317e-014 -1.78906e-014
lhumerus -29.3911 10.4613 85.9002
lradius 18.3089
lwrist -33.5059
lhand -24.7357 -21.2258
lfingers 7.12502
lthumb 1.76679 8.74667
rfemur -6.15334 2.19686 19.5919
rtibia 8.49381
rfoot -14.2997 -2.09643
rtoes -26.5433
lfemur -6.96647 -8.05618 -22.0825
ltibia 10.032
lfoot -15.5414 4.49639
ltoes -65.8698
35
root 7.0472 16.6276 36.4528 -169.808 2.64862 179.155
lowerback -8.69634 1.12995 -6.99281
upperback 1.59319 2.17956 1.67903
thorax 6.25341 0.782483 6.02362
lowerneck -6.42655 0.511039 -3.74463
upperneck 31.7238 -4.33746 6.40943
head 11.5633 -2.93499 2.28127
rclavicle 7.45443e-015 -3.97569e-016
rhumerus -50.4409 -32.7423 -63.0855
rradius 26.1085
rwrist 16.5303
rhand -14.2719 -37.6733
rfingers 7.12502
rthumb 11.867 -67.317
lclavicle 7.45443e-015 -3.97569e-016
lhumerus -29.3213 10.2131 86.0534
lradius 18.4775
lwrist -33.1819
lhand -24.7679 -21.0312
lfingers 7.12502
lthumb 1.7357 8.94147
rfemur -6.1039 2.14042 19.4833
rtibia 8.48937
rfoot -14.275 -2.07931
rtoes -26.6926
lfemur -6.90514 -8.04105 -22.2017
ltibia 10.0087
lfoot -15.5271 4.50847
ltoes -65.8634
36
root 7.04517 16.6276 36.453 -169.834 2.68215 179.085
lowerback -8.69582 1.11664 -7.06167
upperback 1.60304 2.17102 1.65148
thorax 6.26394 0.775356 6.03252
lowerneck -6.44536 0.559414 -3.79867
upperneck 31.8062 -4.32225 6.52456
head 11.6022 -2.92831 2.3353
rclavicle -4.96962e-017 1.15295e-014
rhumerus -50.3995 -32.7127 -63.1469
rradius 26.1443
rwrist 16.3043
rhand -14.7556 -37.5931
rfingers 7.12502
rthumb 11.4005 -67.2632
lclavicle -4.96962e-017 1.15295e-014
lhumerus -29.1815 10.0126 86.1826
lradius 18.5477
lwrist -32.8454
lhand -24.8622 -20.821
lfingers 7.12502
lthumb 1.64467 9.15236
rfemur -6.08066 2.13242 19.3876
rtibia 8.48499
rfoot -14.2679 -2.05014
rtoes -26.6559
lfemur -6.87177 -8.03545 -22.3037
ltibia 9.98344
lfoot -15.5104 4.47561
ltoes -65.7645
37
root 7.04451 16.6264 36.4558 -169.805 2.74437 179.053
lowerback -8.73262 1.10324 -7.10455
upperback 1.6025 2.16213 1.62381
thorax 6.28553 0.76885 6.02773
lowerneck -6.42973 0.615194 -3.82306
upperneck 31.8579 -4.28992 6.6172
head 11.6197 -2.91296 2.37789
rclavicle 4.47266e-015 -1.15295e-014
rhumerus -50.2438 -32.6137 -63.426
rradius 26.309
rwrist 15.439
rhand -15.0319 -38.22
rfingers 7.12502
rthumb 11.1339 -67.9047
lclavicle 4.47266e-015 -1.15295e-014
lhumerus -29.0729 9.83052 86.2574
lradius 18.6357
lwrist -32.5312
lhand -25.0146 -20.6823
lfingers 7.12502
lthumb 1.49743 9.29223
rfemur -6.16145 2.14979 19.3424
rtibia 8.54959
rfoot -14.3063 -1.98696
rtoes -26.6605
lfemur -6.89156 -7.96388 -22.3477
ltibia 9.93588
lfoot -15.4509 4.53953
ltoes -65.989
38
root 7.04388 16.6259 36.4584 -169.761 2.80467 179.136
lowerback -8.78634 1.08983 -7.0393
upperback 1.60309 2.14007 1.64047
thorax 6.32159 0.758493 6.00788
lowerneck -6.47065 0.653839 -3.77597
upperneck 31.9868 -4.25726 6.54596
head 11.6752 -2.90791 2.34618
rclavicle -1.99282e-014 -7.15625e-015
rhumerus -50.1114 -32.6401 -63.5935
rradius 26.4141
rwrist 15.0744
rhand -14.9708 -38.6924
rfingers 7.12502
rthumb 11.1929 -68.3738
lclavicle -1.99282e-014 -7.15625e-015
lhumerus -29.0482 9.67444 86.3517
lradius 18.8523
lwrist -32.1837
lhand -25.0815 -20.5937
lfingers 7.12502
lthumb 1.43285 9.3812
rfemur -6.26022 2.14008 19.4369
rtibia 8.63039
rfoot -14.3132 -1.89234
rtoes -26.7849
lfemur -6.89596 -7.85115 -22.2498
ltibia 9.85758
lfoot -15.3954 4.61972
ltoes -66.2462
39
root 7.04367 16.6261 36.4593 -169.752 2.85552 179.22
lowerback -8.85274 1.09784 -6.98934
upperback 1.63416 2.15 1.65637
thorax 6.39213 0.760824 6.00147
lowerneck -6.49621 0.654527 -3.67983
upperneck 32.0681 -4.27078 6.45608
head 11.7108 -2.917 2.29336
rclavicle 3.97569e-015 1.70955e-014
rhumerus -50.0426 -32.7787 -63.6444
rradius 26.4459
rwrist 15.1853
rhand -14.8967 -38.8416
rfingers 7.12502
rthumb 11.2644 -68.5192
lclavicle 3.97569e-015 1.70955e-014
lhumerus -28.9978 9.47505 86.4889
lradius 19.0739
lwrist -31.8686
lhand -25.1411 -20.5299
lfingers 7.12502
lthumb 1.3753 9.44541
rfemur -6.28376 2.14959 19.5304
rtibia 8.63926
rfoot -14.2869 -1.84583
rtoes -26.8834
lfemur -6.87112 -7.8256 -22.1492
ltibia 9.79132
lfoot -15.4527 4.57194
ltoes -66.0629
40
root 7.04232 16.6261 36.4594 -169.777 2.88952 179.161
lowerback -8.88509 1.09901 -7.06924
upperback 1.65565 2.16512 1.62703
thorax 6.43004 0.763294 6.01953
lowerneck -6.41462 0.649127 -3.60652
upperneck 32.0921 -4.32531 6.46583
head 11.7068 -2.94069 2.27723
rclavicle -1.63003e-014 -7.95139e-016
rhumerus -49.9898 -32.7984 -63.7727
rradius 26.4617
rwrist 15.0261
rhand -15.1363 -38.9056
rfingers 7.12502
rthumb 11.0332 -68.5956
lclavicle -1.63003e-014 -7.95139e-016
lhumerus -28.9363 9.247 86.6065
lradius 19.2215
lwrist -31.5397
lhand -25.1788 -20.5818
lfingers 7.12502
lthumb 1.33886 9.39376
rfemur -6.26087 2.08939 19.4442
rtibia 8.62564
rfoot -14.3027 -1.78142
rtoes -27.0194
lfemur -6.83895 -7.86407 -22.2347
ltibia 9.79267
lfoot -15.5386 4.50046
ltoes -65.815
41
root 7.03911 16.6251 36.4593 -169.79 2.91951 179.016
lowerback -8.90571 1.07887 -7.21455
upperback 1.65855 2.15888 1.5814
thorax 6.44339 0.75472 6.05356
lowerneck -6.43402 0.679066 -3.56934
upperneck 32.2535 -4.36156 6.50526
head 11.7789 -2.96111 2.28023
rclavicle -4.02539e-015 -1.63003e-014
rhumerus -49.9861 -32.7566 -63.897
rradius 26.4922
rwrist 14.9396
rhand -14.915 -38.6822
rfingers 7.12502
rthumb 11.2467 -68.3607
lclavicle -4.02539e-015 -1.63003e-014
lhumerus -28.9012 9.0377 86.711
lradius 19.3544
lwrist -31.1341
lhand -25.1772 -20.5323
lfingers 7.12502
lthumb 1.34047 9.44322
rfemur -6.26117 1.93898 19.2391
rtibia 8.63387
rfoot -14.3226 -1.61974
rtoes -26.9585
lfemur -6.81867 -7.90121 -22.4433
ltibia 9.83759
lfoot -15.5648 4.38756
ltoes -65.5945
